<svg width="135" height="18" viewBox="0 0 135 18" fill="none" xmlns="http://www.w3.org/2000/svg">
<g clip-path="url(#clip0_121_1158)">
<path d="M95.1225 9.47038C95.1225 10.7843 94.9287 11.926 94.5394 12.8974C94.1518 13.8688 93.6007 14.6793 92.886 15.3288C92.1713 15.9782 91.3126 16.4611 90.3064 16.7737C89.3019 17.0881 88.1889 17.2454 86.9693 17.2454C86.388 17.2454 85.7284 17.2192 84.9942 17.1686C84.2581 17.1162 83.5594 17.0114 82.8945 16.8504V2.11465C83.5594 1.95369 84.267 1.85262 85.0155 1.8077C85.764 1.76278 86.4289 1.74219 87.012 1.74219C88.2174 1.74219 89.3214 1.89192 90.3188 2.19139C91.3179 2.49086 92.1731 2.95691 92.8878 3.59141C93.6007 4.22591 94.1518 5.02887 94.5412 6.00027C94.9287 6.97168 95.1225 8.12838 95.1225 9.47038ZM85.5133 14.7916C85.6662 14.8066 85.8671 14.8178 86.116 14.8253C86.3649 14.8328 86.7044 14.8365 87.1347 14.8365C88.8965 14.8365 90.2086 14.3667 91.0762 13.4253C91.942 12.4838 92.3758 11.1661 92.3758 9.47225C92.3758 7.7503 91.9526 6.42889 91.1064 5.50989C90.2601 4.59089 88.9499 4.13046 87.1756 4.13046C86.4004 4.13046 85.8457 4.15105 85.5115 4.19597V14.7916H85.5133Z" fill="white"/>
<path d="M39.9238 11.3327C39.9238 12.2386 39.7976 13.0622 39.5487 13.8071C39.2998 14.552 38.946 15.1865 38.4891 15.7125C38.0304 16.2384 37.4793 16.6465 36.8357 16.9403C36.1904 17.2323 35.481 17.3783 34.7041 17.3783C33.9272 17.3783 33.2196 17.2323 32.5831 16.9403C31.9467 16.6483 31.3991 16.2384 30.9404 15.7125C30.4817 15.1865 30.1262 14.552 29.8684 13.8071C29.6124 13.064 29.4844 12.2386 29.4844 11.3327C29.4844 10.4268 29.6124 9.60704 29.8684 8.8696C30.1244 8.13215 30.4853 7.5014 30.9493 6.97545C31.4133 6.45138 31.9645 6.04523 32.6027 5.76073C33.2392 5.47623 33.9396 5.33398 34.7041 5.33398C35.4668 5.33398 36.1708 5.47623 36.8162 5.76073C37.4615 6.04523 38.0126 6.45138 38.4695 6.97545C38.9282 7.5014 39.2838 8.13215 39.5416 8.8696C39.7958 9.60517 39.9238 10.4268 39.9238 11.3327ZM37.3442 11.3327C37.3442 10.1948 37.1113 9.2926 36.6473 8.62815C36.1833 7.9637 35.5343 7.63241 34.7023 7.63241C33.8703 7.63241 33.2214 7.9637 32.7574 8.62815C32.2934 9.2926 32.0605 10.1929 32.0605 11.3327C32.0605 12.4876 32.2916 13.3991 32.7574 14.0691C33.2214 14.7411 33.8703 15.0761 34.7023 15.0761C35.5343 15.0761 36.1815 14.7411 36.6473 14.0691C37.1131 13.3972 37.3442 12.4857 37.3442 11.3327Z" fill="white"/>
<path d="M44.1914 15.164C44.8563 15.164 45.3417 15.0798 45.6475 14.9113C45.9515 14.7447 46.1044 14.4546 46.1044 14.0466C46.1044 13.6666 45.9408 13.3541 45.6155 13.1051C45.2901 12.8562 44.7514 12.5867 44.0047 12.2947C43.5461 12.1206 43.1265 11.9335 42.746 11.7369C42.3638 11.5404 42.0349 11.3102 41.7576 11.0482C41.4802 10.7861 41.2615 10.4679 41.1033 10.0955C40.9433 9.72301 40.8651 9.26631 40.8651 8.72727C40.8651 7.67538 41.2331 6.8481 41.9673 6.24167C42.7016 5.63524 43.7007 5.33203 44.963 5.33203C45.6012 5.33203 46.211 5.3938 46.7942 5.51733C47.3755 5.64273 47.8129 5.76252 48.1044 5.87856L47.6475 8.02351C47.3702 7.8925 47.0164 7.77084 46.5879 7.66228C46.1577 7.55185 45.6581 7.49757 45.091 7.49757C44.5772 7.49757 44.1612 7.58928 43.843 7.77084C43.5247 7.95426 43.3647 8.23502 43.3647 8.61497C43.3647 8.80401 43.3967 8.97246 43.4572 9.11845C43.5194 9.26444 43.6278 9.40108 43.779 9.52461C43.9318 9.64814 44.1327 9.77167 44.3816 9.8952C44.6305 10.0206 44.9363 10.1479 45.2972 10.2789C45.8946 10.5129 46.3995 10.7431 46.8155 10.9695C47.2315 11.196 47.5746 11.4506 47.8449 11.7351C48.1151 12.0196 48.3124 12.3452 48.4369 12.7083C48.5613 13.0733 48.6236 13.5113 48.6236 14.0223C48.6236 15.1172 48.2395 15.9464 47.4697 16.506C46.6999 17.0675 45.6012 17.3483 44.1719 17.3483C43.2154 17.3483 42.4456 17.264 41.8624 17.0974C41.2793 16.929 40.8722 16.7942 40.6357 16.6913L41.0731 14.479C41.4482 14.6399 41.8944 14.7934 42.4154 14.9394C42.9327 15.091 43.5247 15.164 44.1914 15.164Z" fill="white"/>
<path d="M52.9738 15.164C53.6387 15.164 54.1241 15.0798 54.4299 14.9113C54.7339 14.7447 54.8868 14.4546 54.8868 14.0466C54.8868 13.6666 54.7232 13.3541 54.3979 13.1051C54.0725 12.8562 53.5338 12.5867 52.7871 12.2947C52.3285 12.1206 51.9089 11.9335 51.5284 11.7369C51.1462 11.5404 50.8173 11.3102 50.54 11.0482C50.2626 10.7861 50.0439 10.4679 49.8857 10.0955C49.7257 9.72301 49.6475 9.26631 49.6475 8.72727C49.6475 7.67538 50.0155 6.8481 50.7497 6.24167C51.484 5.63524 52.4831 5.33203 53.7454 5.33203C54.3836 5.33203 54.9934 5.3938 55.5766 5.51733C56.1579 5.64273 56.5953 5.76252 56.8868 5.87856L56.4299 8.02351C56.1526 7.8925 55.7988 7.77084 55.3703 7.66228C54.9401 7.55185 54.4405 7.49757 53.8734 7.49757C53.3596 7.49757 52.9436 7.58928 52.6254 7.77084C52.3071 7.95426 52.1471 8.23502 52.1471 8.61497C52.1471 8.80401 52.1791 8.97246 52.2396 9.11845C52.3018 9.26444 52.4102 9.40108 52.5614 9.52461C52.7143 9.64814 52.9152 9.77167 53.1641 9.8952C53.4129 10.0206 53.7187 10.1479 54.0796 10.2789C54.677 10.5129 55.1819 10.7431 55.5979 10.9695C56.0139 11.196 56.357 11.4506 56.6273 11.7351C56.8975 12.0196 57.0949 12.3452 57.2193 12.7083C57.3437 13.0733 57.406 13.5113 57.406 14.0223C57.406 15.1172 57.022 15.9464 56.2522 16.506C55.4824 17.0675 54.3836 17.3483 52.9543 17.3483C51.9978 17.3483 51.228 17.264 50.6466 17.0974C50.0635 16.929 49.6546 16.7942 49.4199 16.6913L49.8573 14.479C50.2324 14.6399 50.6786 14.7934 51.1995 14.9394C51.7169 15.091 52.3089 15.164 52.9738 15.164Z" fill="white"/>
<path d="M61.5713 2.26834C61.5713 2.76434 61.4184 3.15739 61.1126 3.45125C60.8086 3.74323 60.4477 3.88922 60.0316 3.88922C59.6014 3.88922 59.2352 3.74323 58.9294 3.45125C58.6236 3.15926 58.4707 2.76434 58.4707 2.26834C58.4707 1.75737 58.6236 1.35683 58.9294 1.06297C59.2334 0.770991 59.6014 0.625 60.0316 0.625C60.4477 0.625 60.8086 0.770991 61.1126 1.06297C61.4201 1.35496 61.5713 1.7555 61.5713 2.26834ZM61.301 17.0696H58.7836V5.61679H61.301V17.0696Z" fill="white"/>
<path d="M62.5225 11.3982C62.5225 10.3912 62.6629 9.50776 62.9474 8.74786C63.2318 7.98795 63.6105 7.35719 64.0816 6.85371C64.5528 6.35023 65.0932 5.97028 65.7048 5.71573C66.3146 5.46118 66.9386 5.33203 67.5768 5.33203C69.0738 5.33203 70.2418 5.82054 71.081 6.79943C71.9201 7.77832 72.3397 9.23637 72.3397 11.1792C72.3397 11.3252 72.3361 11.4899 72.329 11.6714C72.3219 11.8549 72.3112 12.0177 72.297 12.1637H65.1217C65.191 13.0827 65.4986 13.7958 66.0461 14.2993C66.5937 14.8028 67.3884 15.0554 68.4267 15.0554C69.0365 15.0554 69.5947 14.9974 70.1014 14.8795C70.6063 14.7635 71.0063 14.6381 71.2979 14.507L71.6303 16.6744C71.4916 16.7474 71.3014 16.8242 71.0579 16.9047C70.8143 16.9851 70.5387 17.0581 70.2258 17.1236C69.9129 17.1892 69.5769 17.2453 69.2178 17.2884C68.8569 17.3314 68.4907 17.3539 68.1155 17.3539C67.1591 17.3539 66.327 17.2041 65.6195 16.9065C64.9119 16.6071 64.3305 16.1916 63.8718 15.6581C63.4132 15.1247 63.0754 14.4977 62.8531 13.7752C62.6327 13.0509 62.5225 12.2591 62.5225 11.3982ZM69.8223 10.2153C69.8223 9.85028 69.7725 9.50402 69.6765 9.1746C69.5787 8.84706 69.4365 8.56069 69.2498 8.32111C69.0631 8.07967 68.8338 7.89062 68.5636 7.75212C68.2933 7.61362 67.9715 7.54436 67.5964 7.54436C67.2088 7.54436 66.8693 7.6211 66.5777 7.77458C66.2861 7.92806 66.0408 8.1302 65.8399 8.37726C65.639 8.6262 65.4826 8.91069 65.3723 9.23075C65.2603 9.55081 65.1839 9.88023 65.143 10.2153H69.8223Z" fill="white"/>
<path d="M79.9417 8.0048C79.7337 7.93181 79.4457 7.85507 79.0777 7.77458C78.7096 7.69597 78.2847 7.6548 77.7994 7.6548C77.5221 7.6548 77.2269 7.68474 76.9158 7.74276C76.6047 7.80079 76.386 7.85319 76.2616 7.89624V17.0694H73.7441V6.16493C74.2295 5.97589 74.8357 5.79621 75.5647 5.62963C76.2918 5.46118 77.1007 5.37695 77.9879 5.37695C78.1532 5.37695 78.3488 5.38818 78.5692 5.41064C78.7914 5.4331 79.0119 5.46305 79.2341 5.49861C79.4563 5.53605 79.6715 5.5791 79.8795 5.62963C80.0875 5.68204 80.2546 5.72883 80.379 5.77188L79.9417 8.0048Z" fill="white"/>
<path d="M99.0186 2.26834C99.0186 2.76434 98.8657 3.15739 98.5599 3.45125C98.2559 3.74323 97.8949 3.88922 97.4789 3.88922C97.0487 3.88922 96.6824 3.74323 96.3766 3.45125C96.0709 3.15926 95.918 2.76434 95.918 2.26834C95.918 1.75737 96.0709 1.35683 96.3766 1.06297C96.6807 0.770991 97.0487 0.625 97.4789 0.625C97.8949 0.625 98.2559 0.770991 98.5599 1.06297C98.8657 1.35496 99.0186 1.7555 99.0186 2.26834ZM98.7483 17.0696H96.2309V5.61679H98.7483V17.0696Z" fill="white"/>
<path d="M106.679 8.0048C106.471 7.93181 106.183 7.85507 105.815 7.77458C105.447 7.69597 105.022 7.6548 104.537 7.6548C104.259 7.6548 103.964 7.68474 103.653 7.74276C103.342 7.80079 103.123 7.85319 102.999 7.89624V17.0694H100.481V6.16493C100.967 5.97589 101.575 5.79621 102.302 5.62963C103.029 5.46118 103.838 5.37695 104.725 5.37695C104.89 5.37695 105.086 5.38818 105.307 5.41064C105.529 5.4331 105.749 5.46305 105.971 5.49861C106.194 5.53605 106.409 5.5791 106.617 5.62963C106.825 5.68204 106.992 5.72883 107.116 5.77188L106.679 8.0048Z" fill="white"/>
<path d="M107.116 11.3982C107.116 10.3912 107.257 9.50776 107.541 8.74786C107.826 7.98795 108.204 7.35719 108.675 6.85371C109.147 6.35023 109.687 5.97028 110.299 5.71573C110.908 5.46118 111.532 5.33203 112.171 5.33203C113.668 5.33203 114.836 5.82054 115.675 6.79943C116.514 7.77832 116.933 9.23637 116.933 11.1792C116.933 11.3252 116.93 11.4899 116.923 11.6714C116.916 11.8549 116.905 12.0177 116.891 12.1637H109.715C109.785 13.0827 110.092 13.7958 110.64 14.2993C111.187 14.8028 111.98 15.0554 113.02 15.0554C113.63 15.0554 114.188 14.9974 114.695 14.8795C115.2 14.7635 115.6 14.6381 115.892 14.507L116.224 16.6744C116.085 16.7474 115.895 16.8242 115.652 16.9047C115.408 16.9851 115.132 17.0581 114.82 17.1236C114.507 17.1892 114.171 17.2453 113.812 17.2884C113.451 17.3314 113.084 17.3539 112.709 17.3539C111.753 17.3539 110.921 17.2041 110.213 16.9065C109.507 16.6071 108.924 16.1916 108.466 15.6581C108.007 15.1247 107.669 14.4977 107.447 13.7752C107.226 13.0509 107.116 12.2591 107.116 11.3982ZM114.416 10.2153C114.416 9.85028 114.366 9.50402 114.27 9.1746C114.172 8.84706 114.03 8.56069 113.844 8.32111C113.657 8.07967 113.428 7.89062 113.157 7.75212C112.887 7.61362 112.565 7.54436 112.19 7.54436C111.803 7.54436 111.463 7.6211 111.171 7.77458C110.88 7.92806 110.635 8.1302 110.434 8.37726C110.233 8.6262 110.076 8.91069 109.966 9.23075C109.854 9.55081 109.778 9.88023 109.737 10.2153H114.416Z" fill="white"/>
<path d="M117.719 11.3537C117.719 10.5076 117.843 9.71593 118.092 8.97848C118.341 8.24104 118.698 7.60279 119.164 7.06188C119.628 6.52283 120.193 6.09796 120.86 5.791C121.525 5.48404 122.274 5.33057 123.106 5.33057C124.131 5.33057 125.102 5.52709 126.018 5.92202L125.477 8.08943C125.186 7.95841 124.857 7.84986 124.489 7.76001C124.121 7.67205 123.73 7.629 123.314 7.629C122.329 7.629 121.58 7.95467 121.066 8.60227C120.553 9.25175 120.297 10.1689 120.297 11.3499C120.297 12.4879 120.54 13.39 121.024 14.0545C121.509 14.7189 122.327 15.0502 123.477 15.0502C123.907 15.0502 124.331 15.0072 124.747 14.9192C125.163 14.8312 125.523 14.7208 125.827 14.5898L126.181 16.7797C125.904 16.9257 125.484 17.0567 124.923 17.1727C124.361 17.2888 123.781 17.3468 123.186 17.3468C122.256 17.3468 121.449 17.1971 120.762 16.8995C120.076 16.6 119.507 16.1845 119.057 15.651C118.606 15.1176 118.27 14.4831 118.049 13.7457C117.829 13.0157 117.719 12.2165 117.719 11.3537Z" fill="white"/>
<path d="M127.408 2.59569L129.925 2.15771V5.61659H133.794V7.82705H129.925V12.4913C129.925 13.4103 130.064 14.0673 130.341 14.4603C130.619 14.8552 131.09 15.0518 131.755 15.0518C132.212 15.0518 132.619 15.0012 132.971 14.8983C133.325 14.7972 133.606 14.7018 133.814 14.6138L134.23 16.7157C133.938 16.8467 133.558 16.9815 133.085 17.12C132.614 17.2585 132.059 17.3277 131.421 17.3277C130.644 17.3277 129.997 17.2173 129.476 16.9983C128.957 16.7793 128.542 16.4611 128.238 16.0456C127.932 15.6301 127.719 15.1266 127.593 14.5352C127.468 13.9437 127.406 13.2699 127.406 12.51V2.59569H127.408Z" fill="white"/>
<path d="M28.1085 6.06806C27.712 5.07607 27.1342 4.23755 26.3929 3.57872C25.6693 2.93486 24.7982 2.45945 23.8061 2.15998C22.8745 1.8811 21.8452 1.74072 20.7429 1.74072C20.6825 1.74072 14.5098 1.7557 13.8076 1.79687L13.9516 4.52953L20.2896 11.2021L25.1288 6.10549C25.3635 6.39935 25.5555 6.73812 25.712 7.1293C25.9591 7.7507 26.0853 8.52745 26.0853 9.44084C26.0853 10.3299 25.9591 11.0935 25.712 11.7168C25.4684 12.3232 25.1395 12.808 24.7057 13.2029C24.2595 13.6091 23.7261 13.9067 23.0719 14.1107C22.375 14.3297 21.5803 14.4401 20.7091 14.4401C19.9749 14.4401 15.0716 14.4158 14.5525 14.3802L13.7773 17.111C14.4671 17.1597 20.6487 17.1765 20.7091 17.1765C21.8309 17.1765 22.8763 17.0268 23.8115 16.7329C24.8106 16.4222 25.6835 15.9318 26.4035 15.2749C27.1378 14.6086 27.7103 13.7682 28.1067 12.7781C28.4907 11.8197 28.6863 10.6967 28.6863 9.44084C28.6863 8.1606 28.4925 7.02636 28.1085 6.06806ZM17.589 4.49023C19.0131 4.48274 20.3873 4.479 20.7429 4.479C21.4789 4.479 22.1581 4.55948 22.7768 4.71296L20.2896 7.33332L17.589 4.49023Z" fill="white"/>
<path d="M10.6899 13.1335H0.769531L1.46644 10.6722H10.6899V13.1335Z" fill="white"/>
<path d="M10.6904 8.20923H3.98438L4.68129 5.74609H10.6904V8.20923Z" fill="white"/>
</g>
<defs>
<clipPath id="clip0_121_1158">
<rect width="135" height="18" fill="white"/>
</clipPath>
</defs>
</svg>
